<svg aria-hidden="true" style="position:absolute;width:0;height:0;overflow:hidden" xmlns="http://www.w3.org/2000/svg"><defs>
<symbol id="icon-main-google-icon" viewBox="0 0 32 32"><path fill="#4285f4" style="fill:var(--color1, #4285f4)" d="M31.32 16.36c0-1.053-.093-2.053-.253-3.027H16v6.013h8.627c-.387 1.973-1.52 3.64-3.2 4.773v4h5.147c3.013-2.787 4.747-6.893 4.747-11.76z"/><path fill="#34a853" style="fill:var(--color2, #34a853)" d="M16 32c4.32 0 7.933-1.44 10.573-3.88l-5.147-4c-1.44.96-3.267 1.547-5.427 1.547-4.173 0-7.707-2.813-8.973-6.613H1.719v4.12c2.627 5.227 8.027 8.827 14.28 8.827z"/><path fill="#fbbc05" style="fill:var(--color3, #fbbc05)" d="M7.027 19.053c-.333-.96-.507-1.987-.507-3.053s.187-2.093.507-3.053v-4.12H1.72C.635 10.913-.001 13.383-.001 16s.636 5.087 1.762 7.261l-.042-.088 5.307-4.12z"/><path fill="#ea4335" style="fill:var(--color4, #ea4335)" d="M16 6.333c2.36 0 4.467.813 6.133 2.4l4.56-4.56C23.933 1.586 20.32 0 16 0 9.747 0 4.347 3.6 1.72 8.827l5.307 4.12c1.267-3.8 4.8-6.613 8.973-6.613z"/></symbol>
<symbol id="loop-icon" viewBox="0 0 32 32"><path d="M22.222 19.556H20.8l-.533-.533c1.778-1.956 2.844-4.622 2.844-7.467C23.111 5.156 17.955 0 11.555 0S-.001 5.156-.001 11.556c0 6.4 5.156 11.556 11.556 11.556 2.844 0 5.511-1.067 7.467-2.844l.533.533v1.422l8.889 8.889 2.667-2.667-8.889-8.889zm-10.666 0c-4.444 0-8-3.556-8-8s3.556-8 8-8 8 3.556 8 8-3.556 8-8 8z"/></symbol>
<symbol id="basket-icon" viewBox="0 0 32 32"><path d="M9.6 25.6c-1.76 0-3.2 1.44-3.2 3.2S7.84 32 9.6 32c1.76 0 3.2-1.44 3.2-3.2s-1.44-3.2-3.2-3.2zM0 3.2h3.2l5.76 12.16-2.24 3.84c-.16.48-.32 1.12-.32 1.6 0 1.76 1.44 3.2 3.2 3.2h19.2v-3.2H10.24c-.16 0-.32-.16-.32-.32v-.16l1.44-2.72H23.2c1.28 0 2.24-.64 2.72-1.6l5.76-10.4c.32-.32.32-.48.32-.8 0-.96-.64-1.6-1.6-1.6H6.72l-.64-1.44C5.6.8 4.48 0 3.2 0H0v3.2zm25.6 22.4c-1.76 0-3.2 1.44-3.2 3.2s1.44 3.2 3.2 3.2c1.76 0 3.2-1.44 3.2-3.2s-1.44-3.2-3.2-3.2z"/></symbol>
<symbol id="profile-icon" viewBox="0 0 32 32"><path d="M16 0C7.168 0 0 7.168 0 16s7.168 16 16 16 16-7.168 16-16S24.832 0 16 0zm0 4.8c2.656 0 4.8 2.144 4.8 4.8s-2.144 4.8-4.8 4.8c-2.656 0-4.8-2.144-4.8-4.8s2.144-4.8 4.8-4.8zm0 22.72c-4 0-7.536-2.048-9.6-5.152.048-3.184 6.4-4.928 9.6-4.928 3.184 0 9.552 1.744 9.6 4.928A11.52 11.52 0 0 1 16 27.52z"/></symbol>
<symbol id="question-icon" viewBox="0 0 32 32"><path d="M16 0C7.168 0 0 7.168 0 16s7.168 16 16 16 16-7.168 16-16S24.832 0 16 0zm1.6 27.2h-3.2V24h3.2v3.2zm3.312-12.4-1.44 1.472C18.32 17.44 17.6 18.4 17.6 20.8h-3.2V20c0-1.76.72-3.36 1.872-4.528l1.984-2.016A3.128 3.128 0 0 0 19.2 11.2C19.2 9.44 17.76 8 16 8s-3.2 1.44-3.2 3.2H9.6c0-3.536 2.864-6.4 6.4-6.4s6.4 2.864 6.4 6.4a5.091 5.091 0 0 1-1.488 3.6z"/>
</symbol>
<symbol id="icon-tiktok" viewBox="0 0 32 32">
<path d="M16.707 0.027c1.747-0.027 3.48-0.013 5.213-0.027 0.107 2.040 0.84 4.12 2.333 5.56 1.493 1.48 3.6 2.16 5.653 2.387v5.373c-1.92-0.067-3.853-0.467-5.6-1.293-0.76-0.347-1.467-0.787-2.16-1.24-0.013 3.893 0.013 7.787-0.027 11.667-0.107 1.867-0.72 3.72-1.8 5.253-1.747 2.56-4.773 4.227-7.88 4.28-1.907 0.107-3.813-0.413-5.44-1.373-2.693-1.587-4.587-4.493-4.867-7.613-0.027-0.667-0.040-1.333-0.013-1.987 0.24-2.533 1.493-4.96 3.44-6.613 2.213-1.92 5.307-2.84 8.2-2.293 0.027 1.973-0.053 3.947-0.053 5.92-1.32-0.427-2.867-0.307-4.027 0.493-0.84 0.547-1.48 1.387-1.813 2.333-0.28 0.68-0.2 1.427-0.187 2.147 0.32 2.187 2.427 4.027 4.667 3.827 1.493-0.013 2.92-0.88 3.693-2.147 0.253-0.44 0.533-0.893 0.547-1.413 0.133-2.387 0.080-4.76 0.093-7.147 0.013-5.373-0.013-10.733 0.027-16.093z"></path>
</symbol>
<symbol id="icon-encore">
<path fill-rule="evenodd" clip-rule="evenodd" d="M38 4H26.26c-1.6 0-3.12.64-4.24 1.76L5.76 22.02a6 6 0 0 0 0 8.48L17.5 42.24A5.983 5.983 0 0 0 21.74 44c1.52 0 3.08-.58 4.24-1.76L42.24 26A6.03 6.03 0 0 0 44 21.76V10c0-3.32-2.68-6-6-6Zm-5.334 14.667a3.334 3.334 0 1 0 0-6.667 3.334 3.334 0 0 0 0 6.667Z" fill="#8AB4F8"/>
</symbol>
<symbol id="twitter">
<path d="M17.055 4.664a3.8 3.8 0 0 0 1.666-2.095 7.586 7.586 0 0 1-2.405.919 3.788 3.788 0 0 0-6.454 3.455 10.753 10.753 0 0 1-7.808-3.958 3.786 3.786 0 0 0 1.172 5.057 3.773 3.773 0 0 1-1.715-.474v.048a3.79 3.79 0 0 0 3.038 3.713 3.792 3.792 0 0 1-1.71.065 3.791 3.791 0 0 0 3.538 2.63 7.6 7.6 0 0 1-5.608 1.57 10.722 10.722 0 0 0 5.806 1.701c6.967 0 10.777-5.772 10.777-10.777 0-.164-.004-.327-.011-.49a7.698 7.698 0 0 0 1.89-1.96c-.68.3-1.41.504-2.176.596Z" fill="#000"/>
</symbol>
<symbol id="instagram">
<path d="M9.958 2.958c2.292 0 2.542 0 3.459.042.833.042 1.291.167 1.583.292.375.125.708.375 1 .625.292.291.5.625.625 1 .125.291.25.75.292 1.583.041.917.041 1.167.041 3.458 0 2.292 0 2.542-.041 3.458-.042.834-.167 1.292-.292 1.584A2.837 2.837 0 0 1 15 16.625c-.292.125-.75.25-1.583.291-.917.042-1.167.042-3.459.042-2.291 0-2.541 0-3.458-.041-.833-.042-1.292-.167-1.583-.292-.375-.125-.709-.375-1-.625a2.533 2.533 0 0 1-.625-1c-.125-.292-.25-.75-.292-1.584-.042-.916-.042-1.166-.042-3.458 0-2.292 0-2.542.042-3.458.042-.833.167-1.292.292-1.583.125-.375.375-.709.625-1 .291-.292.625-.5 1-.625.291-.125.75-.25 1.583-.292.917-.042 1.208-.042 3.458-.042Zm0-1.542c-2.333 0-2.625 0-3.541.042-.917.042-1.542.167-2.084.417a4.227 4.227 0 0 0-1.458.958c-.417.417-.792.958-1 1.5-.208.542-.375 1.167-.417 2.083-.041.917-.041 1.209-.041 3.542 0 2.333 0 2.625.041 3.542.042.916.167 1.541.417 2.083a3.958 3.958 0 0 0 1 1.5c.417.417.958.792 1.5 1 .542.209 1.167.375 2.083.417.917.041 1.209.041 3.542.041 2.333 0 2.625 0 3.542-.041.916-.042 1.541-.167 2.083-.417a4.347 4.347 0 0 0 2.5-2.5c.208-.542.375-1.167.417-2.083.041-.917.041-1.209.041-3.542 0-2.333 0-2.625-.041-3.542-.042-.916-.167-1.541-.417-2.083a3.662 3.662 0 0 0-1-1.5c-.417-.417-.958-.792-1.5-1-.542-.208-1.167-.375-2.083-.416H9.958Z" fill="#000"/><path d="M9.958 5.583a4.374 4.374 0 1 0 4.375 4.375c.042-2.417-1.916-4.375-4.375-4.375Zm0 7.25A2.836 2.836 0 0 1 7.125 10a2.836 2.836 0 0 1 2.833-2.834A2.836 2.836 0 0 1 12.792 10c.041 1.541-1.25 2.833-2.834 2.833ZM14.542 6.458a1.042 1.042 0 1 0 0-2.083 1.042 1.042 0 0 0 0 2.083Z" fill="#000"/>
</symbol>
<symbol id="facebook">
<path d="M17.445 1.667H2.555c-.555 0-.888.444-.888.888v14.778c0 .556.444.89.889.89h8v-6.445H8.333V9.333h2.223V7.555c0-2.11 1.333-3.333 3.222-3.333.889 0 1.666.111 1.889.111v2.222h-1.334c-1 0-1.222.445-1.222 1.223v1.555h2.445l-.334 2.556h-2.11v6.444h4.221c.556 0 .89-.444.89-.889V2.555c.11-.444-.334-.889-.778-.889Z" fill="#000"/>
</symbol>
<symbol id="youtube">
<path d="M19.783 5.504s-.191-1.375-.791-1.975c-.759-.8-1.609-.8-2-.85C14.2 2.475 10 2.5 10 2.5s-4.183-.025-6.975.175c-.383.05-1.233.05-1.992.85-.6.6-.8 1.975-.8 1.975S.033 7.12 0 8.733v1.688a36.11 36.11 0 0 0 .233 3.229s.2 1.375.8 1.983c.759.792 1.75.767 2.2.85 1.567.15 6.592.184 6.767.184 0 0 4.208.008 7-.192.383-.05 1.233-.05 1.992-.85.6-.6.8-1.975.8-1.975s.2-1.617.208-3.23V8.734c-.017-1.612-.217-3.229-.217-3.229ZM7.975 12.5V6.658l5.358 3.034L7.975 12.5Z" fill="#000"/></g><defs><clipPath id="a"><path fill="#fff" d="M0 0h20v20H0z"/>
</symbol>
<symbol id="icon-tiktok" viewBox="0 0 32 32">
<path d="M16.707 0.027c1.747-0.027 3.48-0.013 5.213-0.027 0.107 2.040 0.84 4.12 2.333 5.56 1.493 1.48 3.6 2.16 5.653 2.387v5.373c-1.92-0.067-3.853-0.467-5.6-1.293-0.76-0.347-1.467-0.787-2.16-1.24-0.013 3.893 0.013 7.787-0.027 11.667-0.107 1.867-0.72 3.72-1.8 5.253-1.747 2.56-4.773 4.227-7.88 4.28-1.907 0.107-3.813-0.413-5.44-1.373-2.693-1.587-4.587-4.493-4.867-7.613-0.027-0.667-0.040-1.333-0.013-1.987 0.24-2.533 1.493-4.96 3.44-6.613 2.213-1.92 5.307-2.84 8.2-2.293 0.027 1.973-0.053 3.947-0.053 5.92-1.32-0.427-2.867-0.307-4.027 0.493-0.84 0.547-1.48 1.387-1.813 2.333-0.28 0.68-0.2 1.427-0.187 2.147 0.32 2.187 2.427 4.027 4.667 3.827 1.493-0.013 2.92-0.88 3.693-2.147 0.253-0.44 0.533-0.893 0.547-1.413 0.133-2.387 0.080-4.76 0.093-7.147 0.013-5.373-0.013-10.733 0.027-16.093z"></path>
</symbol>

</defs></svg>